<?xml version="1.0" standalone="no"?>
<!DOCTYPE svg PUBLIC "-//W3C//DTD SVG 20010904//EN"
 "http://www.w3.org/TR/2001/REC-SVG-20010904/DTD/svg10.dtd">
<svg version="1.0" xmlns="http://www.w3.org/2000/svg"
 width="600.000000pt" height="600.000000pt" viewBox="0 0 600.000000 600.000000"
 preserveAspectRatio="xMidYMid meet">
<metadata>
Created by potrace 1.14, written by Peter Selinger 2001-2017
</metadata>
<g transform="translate(0.000000,600.000000) scale(0.100000,-0.100000)"
fill="#000000" stroke="none">
<path d="M0 5987 c0 -6 192 -205 428 -440 341 -341 430 -425 440 -415 10 10
-74 99 -415 440 -235 236 -434 428 -440 428 -7 0 -13 -6 -13 -13z"/>
<path d="M517 5558 c354 -353 445 -440 455 -430 18 18 -835 872 -872 872 -20
0 57 -82 417 -442z"/>
<path d="M625 5560 c258 -258 445 -438 453 -435 7 3 11 1 8 -4 -3 -4 476 -447
1064 -984 830 -757 1071 -973 1080 -963 8 10 -219 222 -1007 942 -560 511
-1038 948 -1063 971 l-45 43 43 0 c24 0 41 -4 38 -9 -3 -5 371 -352 831 -772
461 -420 917 -837 1014 -926 140 -129 179 -160 188 -149 9 10 -201 207 -994
931 -553 504 -1005 919 -1005 921 0 2 18 4 41 4 22 0 38 -4 35 -9 -3 -5 324
-310 727 -678 402 -367 834 -761 959 -875 178 -163 228 -205 237 -194 9 10
-196 202 -939 880 -523 477 -950 869 -950 872 0 2 18 4 41 4 22 0 38 -4 34 -9
-3 -5 378 -360 847 -788 469 -427 876 -799 904 -825 42 -39 53 -46 63 -35 8
11 -169 178 -873 820 -486 444 -889 813 -896 822 -11 13 -7 15 29 15 24 0 40
-4 36 -10 -3 -5 356 -338 797 -741 442 -403 824 -752 849 -776 37 -36 48 -42
57 -30 9 11 -150 161 -814 768 -454 415 -835 762 -847 771 -22 17 -21 18 21
18 27 0 42 -5 43 -12 0 -10 630 -588 1518 -1395 54 -49 71 -60 80 -50 8 10
-163 172 -755 713 -422 384 -778 709 -793 721 l-26 22 42 1 c26 0 43 -5 45
-13 2 -8 318 -301 703 -651 385 -351 716 -654 736 -673 29 -27 38 -31 47 -20
9 10 -134 145 -695 658 -388 354 -720 656 -737 671 l-31 27 43 1 c23 0 41 -4
40 -9 -2 -5 292 -277 652 -606 360 -328 669 -610 686 -627 25 -23 33 -26 42
-16 9 11 -125 138 -629 598 -352 322 -659 602 -682 622 l-42 37 43 1 c23 0 41
-4 40 -9 -2 -5 280 -268 627 -584 488 -446 633 -573 643 -565 11 9 9 16 -10
33 -13 12 -282 257 -598 545 -316 288 -588 536 -605 551 l-30 29 43 0 c23 0
41 -4 40 -10 -2 -5 256 -245 572 -534 450 -411 577 -522 588 -514 11 9 10 14
-5 28 -10 10 -254 232 -543 495 -289 263 -538 490 -555 506 l-30 29 43 0 c23
0 41 -4 40 -10 -2 -5 231 -223 517 -484 407 -372 522 -472 533 -464 11 9 11
13 0 23 -7 7 -224 205 -483 440 -258 235 -486 443 -505 461 l-35 34 43 0 c24
0 41 -4 40 -10 -2 -6 206 -201 461 -435 378 -345 468 -422 479 -412 12 9 10
14 -11 32 -44 36 -897 817 -897 821 0 2 18 4 41 4 22 0 38 -4 35 -9 -3 -5 179
-178 406 -385 328 -299 414 -373 425 -364 12 9 12 13 1 23 -7 7 -190 173 -405
369 -216 197 -393 360 -393 362 0 2 18 4 41 4 22 0 38 -4 34 -9 -3 -5 155
-156 352 -335 285 -260 359 -323 370 -314 8 6 10 14 6 18 -66 57 -693 632
-693 636 0 2 18 4 41 4 22 0 38 -4 34 -9 -3 -6 130 -134 296 -285 230 -210
305 -273 315 -265 10 8 -30 49 -169 177 -100 91 -235 215 -299 274 l-118 108
39 0 c24 0 41 -5 44 -14 3 -7 114 -113 248 -235 184 -169 245 -219 255 -210
10 8 -42 60 -224 226 -130 119 -241 220 -246 225 -6 4 9 8 32 8 27 0 42 -5 43
-12 1 -14 365 -349 387 -356 6 -2 12 3 12 11 0 13 -80 89 -360 344 -12 11 -8
13 28 13 23 0 41 -4 40 -8 -3 -10 269 -262 283 -262 27 0 -3 38 -103 130 -62
57 -122 112 -133 122 -19 18 -19 18 23 18 23 0 41 -4 40 -9 -3 -10 158 -161
171 -161 30 0 12 26 -61 94 l-83 76 43 0 c24 0 41 -4 38 -9 -6 -9 48 -61 63
-61 21 0 19 16 -6 42 -26 27 -26 28 -5 28 14 0 22 6 22 17 0 14 4 13 23 -6 20
-18 26 -19 35 -8 9 11 5 20 -16 40 -16 15 -31 24 -35 20 -4 -3 -7 11 -7 33 l0
38 75 -74 c60 -60 77 -72 87 -62 10 10 -4 30 -75 99 -72 71 -87 91 -87 117 0
29 6 25 128 -97 103 -103 131 -126 140 -115 9 11 -16 41 -121 146 -73 73 -136
130 -140 126 -4 -4 -7 10 -7 32 l0 39 180 -180 c143 -143 182 -177 192 -167
10 10 -25 50 -172 197 -101 101 -187 182 -192 179 -4 -3 -8 14 -8 38 l0 43
234 -234 c158 -158 236 -229 241 -221 5 8 -74 94 -234 253 -209 209 -241 245
-241 272 0 27 23 6 285 -255 227 -227 287 -282 297 -272 10 10 -46 71 -277
302 -159 159 -292 287 -297 284 -4 -3 -8 14 -8 38 l0 43 339 -339 c228 -228
341 -334 346 -326 5 8 -109 129 -339 358 -302 303 -346 350 -346 377 0 27 35
-5 388 -358 311 -311 391 -386 400 -375 9 11 -68 93 -381 406 -216 216 -396
390 -400 386 -4 -4 -7 10 -7 32 l0 39 440 -440 c351 -351 442 -437 452 -427
10 10 -74 99 -417 442 l-430 430 -1092 0 c-844 0 -1093 -3 -1093 -12 0 -9 -3
-9 -12 0 -7 7 -23 12 -37 12 l-24 0 23 -25 c13 -14 29 -25 37 -25 8 0 13 -13
13 -37 l0 -37 -63 62 c-42 42 -70 62 -87 62 -21 0 -15 -10 55 -79 43 -44 82
-78 87 -75 4 3 8 -14 8 -38 l0 -43 -118 118 c-86 86 -124 117 -142 117 -21 0
-5 -20 105 -130 72 -72 136 -128 142 -125 9 3 13 -8 13 -38 l0 -42 -168 168
c-126 126 -173 167 -192 167 -21 0 6 -31 159 -184 102 -102 188 -183 193 -180
4 3 8 -11 8 -30 0 -20 -3 -36 -8 -36 -4 0 -104 97 -222 215 -165 165 -221 215
-240 215 -21 0 15 -40 210 -235 129 -129 241 -233 247 -230 9 3 13 -8 13 -38
l0 -42 -273 273 c-210 210 -278 272 -297 272 -20 0 27 -52 264 -289 160 -160
293 -288 298 -285 4 3 8 -11 8 -30 0 -20 -3 -36 -8 -36 -4 0 -151 144 -327
320 -207 207 -327 320 -340 320 -14 0 86 -106 319 -339 187 -187 343 -338 348
-335 4 3 8 -14 8 -38 l0 -43 -378 378 c-294 294 -383 377 -402 377 -20 0 47
-72 365 -390 214 -214 396 -390 402 -390 8 0 13 -14 13 -37 0 -38 -3 -35 -428
390 -334 334 -433 427 -452 427 -20 0 57 -82 415 -440z"/>
<path d="M3775 5560 c351 -351 442 -437 453 -428 20 17 -831 868 -868 868 -20
0 56 -81 415 -440z"/>
<path d="M3877 5558 c354 -353 445 -440 455 -430 18 18 -835 872 -872 872 -20
0 57 -82 417 -442z"/>
<path d="M3985 5560 c293 -293 443 -436 449 -430 14 14 -841 870 -869 870 -14
0 120 -140 420 -440z"/>
<path d="M4087 5558 c354 -353 445 -440 455 -430 18 18 -835 872 -872 872 -20
0 57 -82 417 -442z"/>
<path d="M4195 5560 c293 -293 443 -436 449 -430 14 14 -841 870 -869 870 -14
0 120 -140 420 -440z"/>
<path d="M4295 5560 c351 -351 442 -437 453 -428 20 17 -831 868 -868 868 -20
0 56 -81 415 -440z"/>
<path d="M4397 5558 c354 -353 445 -440 455 -430 18 18 -835 872 -872 872 -20
0 57 -82 417 -442z"/>
<path d="M4505 5560 c351 -351 442 -437 453 -428 20 17 -831 868 -868 868 -20
0 56 -81 415 -440z"/>
<path d="M4607 5558 c354 -353 445 -440 455 -430 18 18 -835 872 -872 872 -20
0 57 -82 417 -442z"/>
<path d="M4715 5560 c293 -293 443 -436 449 -430 14 14 -841 870 -869 870 -14
0 120 -140 420 -440z"/>
<path d="M4815 5560 c242 -242 445 -438 451 -436 10 4 119 -98 557 -516 147
-141 177 -166 177 -146 0 18 -76 96 -336 343 -303 289 -333 320 -308 323 21 3
38 -7 78 -46 425 -409 561 -534 565 -517 3 20 -54 78 -389 398 -160 153 -172
167 -145 167 25 -1 68 -37 280 -239 199 -190 251 -235 253 -219 3 15 -34 56
-145 161 -81 78 -184 177 -228 220 -77 75 -79 78 -48 75 26 -2 67 -37 225
-188 155 -149 193 -181 197 -165 2 15 -40 61 -170 187 -160 154 -172 167 -144
167 25 0 54 -23 170 -134 112 -108 141 -130 143 -114 3 14 -29 51 -115 134
-111 107 -116 114 -88 115 24 0 46 -16 117 -87 76 -76 88 -84 88 -63 0 17 -20
45 -62 87 -62 62 -62 63 -33 63 19 0 40 -11 62 -32 l32 -31 1 466 0 467 -360
0 c-273 0 -360 -3 -360 -12 0 -9 -3 -9 -12 0 -7 7 -21 12 -33 12 -18 -1 -16
-4 13 -30 23 -22 32 -38 32 -62 l0 -32 -63 62 c-42 42 -70 62 -87 62 -21 0
-15 -10 55 -79 43 -44 82 -78 87 -75 4 3 8 -14 8 -38 l0 -43 -119 119 c-76 76
-124 117 -135 114 -12 -2 22 -42 118 -137 116 -115 136 -139 136 -165 0 -29
-10 -21 -168 137 -126 126 -173 167 -192 167 -21 0 6 -31 159 -184 102 -102
188 -183 193 -180 4 3 8 -12 8 -33 l0 -38 -218 218 c-166 166 -223 217 -242
217 -20 0 16 -41 209 -234 129 -129 238 -233 243 -230 4 3 8 -14 8 -38 l0 -43
-273 273 c-210 210 -278 272 -297 272 -20 0 27 -52 264 -289 160 -160 293
-288 298 -285 4 3 8 -12 8 -33 l0 -38 -323 323 c-250 250 -328 322 -347 322
-20 0 37 -62 314 -339 187 -187 343 -338 348 -335 4 3 8 -14 8 -38 l0 -43
-379 379 c-250 250 -384 377 -395 375 -11 -3 108 -128 379 -399 346 -345 395
-398 395 -425 0 -27 -39 9 -428 398 -334 334 -433 427 -452 427 -20 0 57 -82
415 -440z"/>
<path d="M0 5890 c0 -37 744 -780 762 -762 10 10 -66 90 -375 400 -316 316
-387 382 -387 362z"/>
<path d="M0 5790 c0 -37 644 -680 662 -662 10 10 -56 80 -325 350 -276 276
-337 332 -337 312z"/>
<path d="M0 5685 c0 -28 544 -572 555 -555 5 8 -89 109 -274 294 -194 194
-281 275 -281 261z"/>
<path d="M0 5580 c0 -37 434 -470 452 -452 10 10 -35 59 -220 245 -193 192
-232 228 -232 207z"/>
<path d="M0 5480 c0 -37 331 -368 348 -348 9 11 -25 51 -168 193 -151 151
-180 176 -180 155z"/>
<path d="M0 5370 c0 -36 224 -260 242 -242 10 10 -14 38 -115 140 -109 108
-127 123 -127 102z"/>
<path d="M0 5269 c0 -35 122 -156 138 -136 9 10 -4 29 -63 87 -67 66 -75 72
-75 49z"/>
<path d="M0 5158 c0 -31 17 -45 33 -29 8 8 5 17 -11 33 l-22 22 0 -26z"/>
<path d="M5277 5046 c-5 -13 253 -267 681 -670 41 -39 43 -40 40 -16 -2 18
-99 117 -338 345 -402 384 -376 360 -383 341z"/>
<path d="M1085 5029 c-4 -6 5 -23 21 -39 16 -15 472 -431 1014 -925 542 -494
1005 -917 1030 -941 l45 -44 -43 0 c-24 0 -41 4 -38 9 7 10 -2000 1846 -2017
1846 -6 0 -12 -5 -14 -10 -2 -6 442 -417 986 -913 545 -497 995 -910 1002
-918 10 -12 5 -14 -30 -14 -24 0 -40 4 -36 9 6 11 -1890 1746 -1908 1746 -7 0
-12 -6 -12 -12 0 -7 427 -402 948 -878 l948 -865 -46 0 c-29 0 -44 4 -43 12 4
14 -1783 1649 -1797 1644 -5 -1 -10 -8 -10 -14 0 -6 376 -354 835 -773 459
-419 861 -786 893 -816 l58 -53 -40 0 c-26 0 -41 5 -42 13 -1 15 -1675 1542
-1692 1542 -7 0 -12 -5 -12 -12 0 -6 376 -354 835 -773 459 -419 837 -764 839
-766 2 -2 -14 -4 -37 -4 -26 0 -42 5 -44 13 -4 20 -1571 1447 -1583 1444 -5
-2 -10 -8 -10 -14 0 -6 349 -329 775 -718 426 -389 779 -711 785 -716 5 -5 -8
-9 -33 -9 -23 0 -41 4 -40 9 4 12 -1465 1352 -1477 1348 -5 -2 -10 -8 -10 -14
0 -6 320 -302 710 -658 391 -356 719 -656 730 -666 19 -19 19 -19 -23 -19 -23
0 -41 4 -40 9 4 13 -1354 1252 -1367 1248 -5 -2 -10 -8 -10 -14 0 -5 293 -277
650 -603 358 -326 661 -603 675 -616 l25 -24 -43 0 c-23 0 -41 4 -40 10 4 13
-1244 1151 -1257 1147 -5 -2 -10 -8 -10 -13 0 -6 266 -252 590 -548 325 -296
603 -551 620 -567 l30 -29 -43 0 c-23 0 -41 5 -40 10 4 14 -1133 1051 -1147
1047 -5 -2 -10 -8 -10 -13 0 -6 239 -227 530 -493 292 -266 546 -499 565 -517
l35 -34 -43 0 c-24 0 -41 4 -38 9 7 11 -1024 953 -1038 948 -5 -2 -11 -7 -12
-13 -1 -5 220 -211 492 -459 272 -247 502 -458 511 -467 15 -17 14 -18 -26
-18 -23 0 -40 4 -37 9 7 11 -913 853 -928 848 -5 -2 -11 -7 -12 -13 -1 -5 165
-161 369 -347 205 -185 410 -373 457 -417 l85 -79 -43 -1 c-24 0 -41 4 -37 9
6 11 -803 753 -817 749 -5 -2 -10 -8 -11 -13 -1 -6 165 -162 368 -348 204
-185 383 -351 400 -367 l30 -30 -43 0 c-25 0 -41 4 -37 9 6 10 -689 651 -705
651 -34 0 19 -55 327 -336 192 -174 350 -319 352 -321 2 -1 -14 -3 -37 -3 -27
0 -42 5 -43 13 0 10 -497 470 -578 535 -24 19 -30 20 -34 8 -4 -11 81 -95 281
-277 158 -144 291 -266 297 -271 5 -4 -9 -8 -32 -8 -26 0 -43 5 -45 13 -3 11
-483 457 -492 457 -2 0 -6 -7 -9 -15 -4 -9 67 -80 216 -216 122 -111 231 -211
242 -221 19 -18 19 -18 -23 -18 -23 0 -41 4 -40 9 4 13 -382 362 -393 356 -5
-4 -9 -10 -9 -15 0 -4 73 -74 163 -156 89 -81 173 -158 187 -171 l25 -23 -43
0 c-23 0 -41 4 -40 9 2 5 -59 66 -135 136 -106 97 -141 125 -150 116 -13 -13
-1 -25 173 -183 l85 -78 -43 0 c-24 0 -41 4 -38 8 3 5 -33 44 -80 87 -66 60
-88 75 -97 65 -9 -9 6 -28 68 -86 l80 -73 -43 -1 c-24 0 -41 4 -38 8 3 5 -8
22 -24 37 -23 22 -33 26 -42 17 -9 -9 -6 -18 12 -37 19 -21 21 -25 7 -25 -12
0 -17 -8 -17 -27 l0 -27 -33 32 c-26 25 -36 29 -45 20 -18 -18 46 -82 65 -67
10 9 13 1 13 -42 l0 -54 -85 85 c-67 67 -87 82 -97 72 -17 -17 138 -175 164
-166 15 5 18 -1 18 -40 0 -25 -2 -46 -5 -46 -3 0 -64 61 -137 135 -107 111
-133 133 -145 123 -12 -9 10 -35 123 -149 106 -106 141 -136 151 -127 10 8 13
0 13 -43 l0 -54 -190 190 c-132 132 -193 186 -200 179 -7 -7 46 -69 176 -203
150 -154 189 -189 200 -180 12 10 14 -5 14 -92 l-1 -104 -294 296 c-217 219
-297 294 -304 285 -8 -9 67 -92 280 -310 235 -239 294 -294 305 -285 12 10 14
2 14 -42 l0 -54 -343 348 c-188 191 -348 348 -354 347 -7 0 -13 -5 -13 -11 0
-6 151 -165 337 -353 229 -232 342 -340 355 -339 15 2 18 -4 18 -42 0 -25 -2
-45 -3 -45 -4 0 -607 607 -718 723 -61 65 -77 76 -87 65 -17 -21 774 -824 794
-807 12 10 14 2 14 -42 l-1 -54 -448 455 c-352 356 -452 452 -461 443 -18 -17
878 -927 897 -911 10 8 13 -10 13 -93 l-1 -104 -544 550 c-413 418 -544 545
-545 528 0 -34 1058 -1107 1077 -1092 11 9 13 2 13 -42 l0 -54 -148 150 c-81
83 -327 332 -545 554 -311 317 -397 399 -397 380 0 -33 1043 -1095 1071 -1092
16 2 19 -4 19 -43 0 -25 -3 -44 -8 -42 -4 2 -248 248 -542 546 -427 435 -536
540 -538 523 -5 -32 1055 -1106 1074 -1090 12 9 14 2 14 -42 l0 -54 -208 210
c-114 116 -359 364 -545 552 -255 259 -337 336 -337 319 0 -31 1041 -1091
1070 -1090 19 1 20 -6 20 -100 l-1 -101 -544 550 c-413 418 -544 545 -545 528
0 -34 1058 -1107 1077 -1092 11 9 13 2 13 -42 l0 -54 -143 145 c-79 80 -324
329 -545 554 -317 322 -402 404 -402 385 0 -33 1043 -1095 1071 -1092 16 2 19
-4 19 -43 0 -25 -3 -44 -8 -42 -4 2 -248 248 -542 546 -427 435 -536 540 -538
523 -5 -32 1055 -1106 1074 -1090 12 9 14 2 14 -42 l0 -54 -203 205 c-111 113
-357 361 -545 552 -261 265 -342 342 -342 325 0 -32 1041 -1092 1070 -1091 18
0 20 -6 20 -56 0 -39 -5 -62 -15 -70 -8 -7 -12 -16 -9 -21 3 -5 235 -223 515
-485 394 -367 515 -475 532 -472 17 2 -82 99 -478 468 -393 367 -494 466 -477
468 12 2 28 0 35 -5 8 -4 238 -216 511 -471 381 -356 501 -463 518 -460 17 2
-83 101 -475 466 -273 255 -497 465 -497 467 0 3 11 5 25 5 19 0 131 -99 472
-416 247 -229 473 -441 504 -471 41 -40 63 -54 79 -51 19 2 -62 82 -456 449
-263 246 -488 456 -498 468 -19 21 -19 21 7 21 20 0 125 -93 484 -426 252
-235 479 -447 504 -471 32 -31 53 -44 69 -41 18 2 -71 90 -471 462 -272 253
-495 463 -497 468 -2 4 7 8 21 8 19 0 147 -114 528 -470 381 -355 510 -470
529 -470 31 0 80 -49 -505 495 -253 236 -461 432 -463 436 -2 5 7 9 20 9 18 0
155 -122 529 -470 382 -356 510 -470 529 -470 l25 0 -25 24 c-14 13 -236 221
-495 461 -259 240 -471 441 -473 446 -2 5 7 9 20 9 17 0 160 -127 528 -470
384 -358 511 -470 530 -470 21 0 22 2 10 14 -8 8 -231 215 -495 461 -264 245
-481 450 -483 456 -7 19 38 8 68 -18 18 -15 246 -226 508 -470 374 -348 481
-443 501 -443 25 1 24 2 -16 38 -23 20 -249 230 -503 467 -362 338 -457 431
-440 433 12 2 31 -3 43 -11 12 -9 242 -220 511 -471 388 -362 494 -456 515
-456 l26 1 -32 27 c-17 15 -244 225 -503 467 -375 349 -468 441 -450 443 11 2
31 -3 43 -11 12 -9 242 -221 510 -471 394 -368 494 -456 515 -456 l27 0 -21
18 c-12 9 -239 220 -504 467 -374 349 -478 451 -461 453 11 2 27 0 35 -5 8 -4
237 -216 510 -471 273 -254 503 -462 511 -462 8 0 15 4 15 9 0 6 -221 216
-492 468 -386 360 -487 459 -470 461 12 2 28 0 35 -5 8 -4 216 -196 462 -425
361 -337 451 -416 462 -406 8 6 10 14 6 18 -39 33 -873 813 -873 816 0 2 11 4
25 4 19 0 122 -90 427 -375 318 -295 405 -372 416 -363 11 9 10 14 -5 28 -402
373 -753 702 -753 706 0 2 11 4 25 4 18 0 101 -71 327 -282 167 -154 324 -301
349 -325 37 -35 48 -41 57 -31 8 11 -60 79 -318 318 -181 168 -329 308 -329
313 -1 4 10 7 23 7 17 0 91 -62 267 -226 134 -125 267 -249 295 -276 41 -40
53 -47 62 -35 9 11 -42 63 -261 267 -149 139 -273 257 -275 262 -2 4 7 8 21 8
18 0 87 -59 265 -225 190 -177 243 -221 251 -211 9 11 -36 57 -206 216 -120
111 -220 206 -221 211 -2 5 7 9 20 9 17 0 77 -50 206 -170 100 -94 187 -170
192 -170 31 0 2 35 -142 170 -90 83 -164 156 -166 161 -2 5 7 9 20 9 16 0 64
-39 152 -120 96 -90 132 -118 141 -110 10 8 -8 30 -74 92 -47 45 -99 94 -116
110 l-30 28 27 0 c19 0 50 -20 106 -70 58 -51 82 -66 90 -58 8 8 -5 27 -51 69
-57 54 -60 58 -36 59 15 0 38 -9 52 -20 22 -17 26 -18 37 -5 7 8 9 15 6 15 -4
0 -1 6 6 14 11 12 16 12 31 -2 11 -10 21 -12 27 -6 7 7 0 20 -20 39 -20 20
-30 38 -30 59 0 30 1 30 70 -39 55 -55 72 -67 82 -57 10 10 -5 30 -70 95 -58
58 -82 90 -82 107 0 21 18 7 119 -94 92 -91 123 -117 137 -112 15 6 -7 32
-119 144 -115 115 -137 142 -137 167 0 28 13 16 175 -145 139 -139 177 -172
187 -162 10 10 -26 51 -175 200 -142 142 -187 193 -187 212 0 21 39 -14 224
-199 175 -175 228 -222 242 -217 15 6 -28 53 -224 249 -208 208 -242 246 -242
272 0 27 25 5 280 -250 223 -223 282 -277 292 -267 10 10 -47 72 -280 305
-226 226 -292 298 -292 317 0 20 60 -35 330 -305 263 -263 332 -327 342 -317
10 10 -57 82 -330 355 -297 297 -342 346 -342 372 0 27 37 -7 385 -355 256
-256 388 -381 395 -374 6 6 -122 141 -385 404 -345 344 -395 399 -395 425 0
27 42 -12 435 -405 347 -347 437 -432 447 -422 10 10 -78 103 -435 460 -350
350 -447 452 -447 472 0 20 91 -66 484 -459 383 -383 488 -482 502 -477 14 6
-80 105 -484 509 -439 439 -502 506 -502 532 0 27 54 -24 540 -510 431 -431
542 -537 552 -527 10 10 -99 124 -540 565 -434 434 -552 557 -552 577 0 20
112 -87 589 -564 467 -467 593 -587 607 -582 14 6 -101 126 -589 614 -532 532
-607 611 -607 637 0 27 66 -36 645 -615 515 -515 647 -642 657 -632 10 10
-120 145 -645 670 -518 518 -657 662 -657 682 0 20 133 -108 695 -670 555
-555 697 -692 707 -682 10 10 -130 155 -695 720 -621 621 -707 711 -707 737 0
27 77 -47 750 -720 500 -500 753 -746 760 -739 6 6 -244 263 -750 769 -669
669 -760 764 -760 790 0 27 82 -52 800 -770 639 -639 802 -797 812 -787 10 10
-151 176 -800 825 -642 642 -812 817 -812 837 0 20 164 -139 849 -824 675
-675 853 -848 867 -842 14 6 -153 178 -849 874 -763 763 -867 871 -867 897 0
27 94 -64 905 -875 723 -723 907 -902 917 -892 10 10 -172 197 -905 930 -726
726 -917 922 -917 942 0 20 185 -160 954 -929 759 -759 958 -953 972 -947 14
6 -174 199 -954 979 -857 857 -972 976 -972 1002 0 27 107 -77 1014 -984 605
-605 1016 -1009 1020 -1002 4 6 22 11 39 11 34 0 11 20 546 -489 125 -118 151
-139 151 -120 0 18 -73 93 -306 314 -276 262 -303 290 -278 293 21 3 38 -7 78
-45 437 -419 501 -477 504 -459 4 21 -23 49 -338 349 -146 138 -162 157 -137
157 28 0 53 -22 357 -309 100 -94 120 -109 120 -90 -1 18 -51 72 -197 209
-156 147 -191 186 -175 188 12 2 29 -1 37 -6 9 -4 88 -77 176 -161 130 -125
159 -148 159 -129 1 17 -37 60 -142 160 -128 123 -140 137 -115 138 21 0 52
-23 140 -104 86 -81 113 -101 115 -86 2 12 -26 47 -85 104 -82 80 -86 85 -60
86 21 0 44 -15 88 -57 53 -50 59 -54 59 -32 0 12 -14 38 -32 56 l-32 33 32 0
32 0 0 1070 0 1070 -29 0 c-24 0 -81 51 -351 308 -177 169 -327 307 -333 307
-6 0 -12 -5 -14 -10 -3 -9 320 -324 555 -542 66 -62 67 -62 36 -63 -26 0 -66
34 -304 261 -199 190 -275 257 -281 247 -9 -14 52 -77 351 -361 142 -135 152
-147 124 -147 -29 0 -97 60 -411 364 -41 39 -56 47 -65 38 -11 -11 7 -30 337
-344 60 -58 60 -58 30 -58 -26 0 -56 25 -193 156 -128 123 -166 154 -175 144
-9 -9 21 -43 138 -156 141 -135 148 -144 119 -144 -19 0 -38 8 -50 21 -10 12
-59 57 -107 102 -64 58 -91 77 -99 69 -8 -8 14 -35 83 -101 90 -86 93 -90 64
-91 -22 0 -42 12 -82 52 -41 41 -55 50 -65 40 -9 -9 -4 -21 27 -52 l39 -40
-31 0 c-32 0 -49 -21 -37 -43 4 -7 -9 3 -29 22 -31 30 -37 32 -43 17 -9 -25
44 -80 63 -65 10 9 13 2 13 -37 l0 -49 -83 83 c-68 67 -86 81 -95 69 -16 -19
148 -183 166 -165 9 9 12 0 12 -42 l0 -55 -135 135 c-107 107 -137 132 -147
122 -18 -18 250 -286 269 -270 10 8 13 1 13 -38 l0 -49 -188 188 c-151 151
-191 186 -200 175 -16 -20 358 -394 376 -376 9 9 12 0 12 -42 l0 -55 -239 239
c-156 156 -243 236 -251 231 -16 -10 459 -487 478 -480 8 3 12 -9 12 -43 l0
-47 -293 293 c-233 233 -295 290 -305 280 -18 -18 566 -602 585 -586 10 8 13
1 13 -38 l0 -49 -343 343 c-275 275 -346 341 -355 330 -9 -11 58 -83 332 -357
203 -203 348 -341 355 -337 7 5 11 -8 11 -41 l0 -48 -400 400 c-321 321 -400
395 -406 381 -10 -26 774 -810 793 -794 10 8 13 1 13 -38 l0 -49 -448 448
c-357 357 -450 445 -460 435 -18 -18 876 -912 895 -896 10 8 13 0 13 -43 l0
-54 -500 500 c-399 399 -502 497 -512 487 -18 -18 980 -1016 999 -1000 10 8
13 1 13 -38 l0 -49 -553 553 c-441 441 -555 550 -565 540 -18 -18 1086 -1122
1105 -1106 10 8 13 0 13 -43 l0 -54 -604 604 c-400 400 -608 601 -616 596 -16
-10 1189 -1217 1208 -1210 8 3 12 -9 12 -43 l0 -47 -658 658 c-525 525 -660
655 -670 645 -18 -18 1296 -1332 1315 -1316 10 8 13 1 13 -38 l0 -49 -708 708
c-567 567 -711 706 -720 695 -9 -11 131 -156 697 -722 420 -420 713 -706 720
-702 7 5 11 -8 11 -41 l0 -48 -765 765 c-613 613 -765 760 -771 746 -10 -26
1504 -1540 1523 -1524 10 8 13 1 13 -38 l0 -49 -813 813 c-651 651 -816 811
-825 800 -16 -20 1608 -1644 1626 -1626 9 9 12 0 12 -42 l0 -55 -865 865
c-691 691 -867 862 -877 852 -18 -18 1710 -1746 1729 -1730 10 8 13 1 13 -38
l0 -49 -918 918 c-733 733 -920 915 -930 905 -18 -18 1816 -1852 1835 -1836
10 8 13 0 13 -43 l0 -54 -969 969 c-643 643 -973 966 -981 961 -16 -10 1919
-1947 1938 -1940 8 3 12 -9 12 -43 l0 -47 -1072 1071 -1073 1071 -1013 924
c-558 508 -1018 925 -1022 927 -5 2 -11 -2 -15 -9z m4183 -3997 c9 9 12 2 12
-37 l0 -50 -1025 1025 c-813 813 -1025 1030 -1025 1050 0 20 196 -171 1013
-988 799 -799 1015 -1010 1025 -1000z"/>
<path d="M5274 4939 c-5 -8 12 -30 47 -62 30 -28 195 -185 367 -349 255 -245
312 -295 312 -275 0 19 -77 98 -351 358 -192 184 -354 335 -359 337 -4 2 -12
-2 -16 -9z"/>
<path d="M5277 4843 c-4 -3 -7 -9 -7 -13 0 -6 305 -300 668 -645 57 -54 63
-57 60 -34 -2 19 -97 116 -355 362 -194 186 -354 337 -356 337 -2 0 -7 -3 -10
-7z"/>
<path d="M5274 4729 c-3 -6 0 -17 7 -23 8 -7 170 -162 361 -344 191 -183 350
-332 353 -332 3 0 5 9 5 19 0 12 -131 144 -352 355 -194 185 -355 336 -359
336 -4 0 -11 -5 -15 -11z"/>
<path d="M5277 4634 c-4 -4 -7 -10 -7 -14 0 -4 127 -128 282 -276 156 -148
320 -304 365 -348 72 -68 83 -76 83 -55 0 18 -83 103 -352 359 -193 184 -354
336 -358 338 -3 1 -9 -1 -13 -4z"/>
<path d="M5276 4521 c-6 -9 76 -90 439 -437 305 -290 285 -273 285 -246 0 14
-106 122 -351 356 -193 185 -355 336 -359 336 -5 0 -11 -4 -14 -9z"/>
<path d="M5275 4419 c-8 -12 -12 -9 320 -324 127 -120 269 -257 318 -304 77
-76 87 -83 87 -60 0 20 -71 93 -351 359 -193 184 -355 336 -359 338 -5 2 -11
-2 -15 -9z"/>
<path d="M5277 4316 c-5 -13 253 -267 681 -670 41 -39 43 -40 40 -16 -2 18
-99 117 -338 345 -402 384 -376 360 -383 341z"/>
<path d="M5274 4209 c-5 -8 12 -30 47 -62 30 -28 195 -185 367 -349 255 -245
312 -295 312 -275 0 19 -77 98 -351 358 -192 184 -354 335 -359 337 -4 2 -12
-2 -16 -9z"/>
<path d="M5277 4113 c-4 -3 -7 -9 -7 -13 0 -6 305 -300 668 -645 57 -54 63
-57 60 -34 -2 19 -97 116 -355 362 -194 186 -354 337 -356 337 -2 0 -7 -3 -10
-7z"/>
<path d="M5274 3999 c-3 -6 0 -17 7 -23 8 -7 170 -162 361 -344 191 -183 350
-332 353 -332 3 0 5 9 5 19 0 12 -131 144 -352 355 -194 185 -355 336 -359
336 -4 0 -11 -5 -15 -11z"/>
<path d="M5277 3904 c-4 -4 -7 -10 -7 -14 0 -4 127 -128 282 -276 156 -148
320 -304 365 -348 72 -68 83 -76 83 -55 0 18 -83 103 -352 359 -193 184 -354
336 -358 338 -3 1 -9 -1 -13 -4z"/>
<path d="M5276 3791 c-6 -9 76 -90 439 -437 305 -290 285 -273 285 -246 0 14
-106 122 -351 356 -193 185 -355 336 -359 336 -5 0 -11 -4 -14 -9z"/>
<path d="M72 3078 c-13 -13 -2 -25 672 -706 215 -217 323 -319 330 -312 11 11
7 16 -575 607 -322 329 -418 420 -427 411z"/>
<path d="M592 3078 c-8 -10 43 -67 230 -256 162 -164 244 -240 251 -233 7 7
-42 65 -151 178 -265 277 -317 326 -330 311z"/>
<path d="M0 2620 c0 -18 51 -76 213 -240 756 -766 851 -860 861 -850 11 11 13
10 -616 650 -369 374 -458 460 -458 440z"/>
<path d="M0 2090 c0 -18 51 -76 213 -240 756 -766 851 -860 861 -850 11 11 13
10 -616 650 -369 374 -458 460 -458 440z"/>
<path d="M0 1983 c0 -17 140 -165 527 -558 290 -295 531 -534 537 -532 5 2 11
7 12 13 2 5 -239 254 -536 554 -409 414 -539 540 -540 523z"/>
<path d="M0 1879 c0 -25 20 -46 634 -667 218 -221 323 -319 330 -312 11 11 8
15 -566 599 -311 316 -398 399 -398 380z"/>
<path d="M1 1770 c0 -36 840 -888 856 -868 9 10 -84 109 -423 453 -350 356
-433 435 -433 415z"/>
<path d="M0 1666 c0 -31 738 -782 753 -767 13 13 -8 37 -415 448 -262 265
-338 337 -338 319z"/>
<path d="M1 1560 c0 -36 630 -678 646 -658 8 10 -63 88 -318 348 -266 272
-328 330 -328 310z"/>
<path d="M0 1452 c0 -17 72 -96 268 -294 219 -221 270 -268 279 -256 10 11
-40 66 -267 293 -219 219 -280 275 -280 257z"/>
<path d="M1 1348 c0 -34 424 -467 440 -451 9 9 -42 68 -211 242 -123 127 -224
231 -226 231 -2 0 -4 -10 -3 -22z"/>
<path d="M0 1240 c0 -37 321 -358 338 -338 9 11 -24 50 -163 188 -147 147
-175 171 -175 150z"/>
<path d="M0 1141 c0 -17 32 -57 107 -135 102 -105 128 -125 128 -100 0 6 -53
66 -117 135 -96 101 -118 120 -118 100z"/>
<path d="M0 1029 c0 -35 112 -146 128 -126 9 10 -3 28 -58 82 -63 62 -70 67
-70 44z"/>
<path d="M0 923 c0 -25 15 -38 25 -22 4 6 0 18 -9 27 -15 15 -16 15 -16 -5z"/>
<path d="M5295 889 c-4 -6 -5 -11 -4 -13 2 -1 150 -141 329 -311 422 -401 380
-363 380 -337 0 15 -101 117 -341 346 -188 180 -345 326 -350 326 -4 0 -11 -5
-14 -11z"/>
<path d="M1064 869 c-3 -6 -2 -14 2 -18 5 -5 213 -198 462 -430 343 -319 459
-421 478 -421 24 0 11 12 -815 783 -58 53 -108 97 -112 97 -4 0 -11 -5 -15
-11z"/>
<path d="M5301 787 c-8 -11 43 -65 241 -253 139 -131 299 -283 355 -338 88
-84 103 -95 103 -74 0 18 -58 79 -252 263 -139 132 -293 279 -344 328 -73 69
-94 84 -103 74z"/>
<path d="M1064 769 c-3 -6 0 -17 7 -24 8 -7 191 -178 408 -379 300 -279 399
-366 418 -366 23 0 18 7 -43 64 -38 35 -226 210 -419 390 -192 179 -353 326
-357 326 -4 0 -10 -5 -14 -11z"/>
<path d="M5296 681 c-5 -7 300 -304 662 -645 41 -39 43 -40 40 -16 -2 18 -99
117 -341 348 -186 177 -342 322 -347 322 -5 0 -11 -4 -14 -9z"/>
<path d="M1065 669 c-9 -13 -39 16 369 -363 259 -241 335 -306 355 -306 l26 1
-31 27 c-17 15 -181 166 -363 337 -183 171 -336 311 -341 313 -4 2 -11 -2 -15
-9z"/>
<path d="M5297 577 c-3 -8 104 -117 289 -293 221 -209 301 -280 321 -282 26
-2 23 3 -34 55 -34 32 -172 164 -308 293 -135 129 -250 236 -254 238 -5 2 -11
-3 -14 -11z"/>
<path d="M1064 569 c-8 -13 -6 -16 326 -323 203 -188 271 -246 290 -246 25 1
24 1 -11 33 -20 18 -160 148 -312 290 -151 141 -278 257 -281 257 -2 0 -8 -5
-12 -11z"/>
<path d="M1064 469 c-8 -13 11 -32 276 -278 151 -140 212 -191 230 -191 l25 0
-25 24 c-108 103 -490 456 -494 456 -3 0 -8 -5 -12 -11z"/>
<path d="M5296 471 c-4 -5 102 -112 234 -238 175 -166 248 -229 268 -231 l27
-3 -35 34 c-214 207 -470 447 -478 447 -6 0 -13 -4 -16 -9z"/>
<path d="M5295 370 c-6 -10 38 -55 312 -313 43 -41 68 -58 83 -55 17 2 -17 39
-175 188 -108 102 -200 186 -204 188 -5 2 -12 -2 -16 -8z"/>
<path d="M1065 361 c-3 -5 79 -89 182 -185 138 -129 195 -176 213 -176 l25 0
-30 29 c-111 107 -368 341 -375 341 -5 0 -11 -4 -15 -9z"/>
<path d="M5301 266 c-16 -19 248 -269 279 -264 17 2 -7 30 -124 140 -115 110
-146 135 -155 124z"/>
<path d="M1065 260 c-3 -5 29 -42 72 -82 43 -40 103 -97 135 -126 39 -38 63
-53 78 -50 19 2 -2 26 -121 136 -78 72 -146 132 -150 132 -4 0 -11 -4 -14 -10z"/>
<path d="M1065 159 c-11 -17 146 -158 175 -158 22 0 12 12 -65 84 -49 47 -93
85 -97 85 -4 0 -10 -5 -13 -11z"/>
<path d="M5295 160 c-3 -5 29 -43 72 -84 55 -53 85 -75 103 -75 22 0 13 11
-65 84 -49 47 -93 85 -97 85 -4 0 -9 -4 -13 -10z"/>
<path d="M1065 59 c-11 -16 35 -59 64 -59 l25 0 -34 35 c-36 37 -45 41 -55 24z"/>
<path d="M5302 57 c-16 -19 27 -60 58 -55 20 3 19 5 -13 36 -28 27 -36 30 -45
19z"/>
</g>
</svg>
